PathFileType	4	(X/Y/Z)	C:/Users/opensim2020/Desktop/walking_exp_matlab/subject01_walking13_straight_03.trc																																																																																																																												
DataRate	CameraRate	NumFrames	NumMarkers	Units	OrigDataRate	OrigDataStartFrame	OrigNumFrames																																																																																																																								
100	100	8	42	mm	100	1663	128																																																																																																																								
Frame#	Time	LFHD			RFHD			LBHD			RBHD			C7			T10			CLAV			STRN			RBAK			LSHO			LUPA			LELB			LFRM			LWRA			LWRB			LFIN			RSHO			RUPA			RELB			RFRM			RWRA			RWRB			RFIN			LASI			RASI			LPSI			RPSI			LTHI			LKNE			LTIB			LANK			LHEE			LTOE			RTHI			RKNE			RTIB			RANK			RHEE			RTOE			*39			*40			*41		
		X1	Y1	Z1	X2	Y2	Z2	X3	Y3	Z3	X4	Y4	Z4	X5	Y5	Z5	X6	Y6	Z6	X7	Y7	Z7	X8	Y8	Z8	X9	Y9	Z9	X10	Y10	Z10	X11	Y11	Z11	X12	Y12	Z12	X13	Y13	Z13	X14	Y14	Z14	X15	Y15	Z15	X16	Y16	Z16	X17	Y17	Z17	X18	Y18	Z18	X19	Y19	Z19	X20	Y20	Z20	X21	Y21	Z21	X22	Y22	Z22	X23	Y23	Z23	X24	Y24	Z24	X25	Y25	Z25	X26	Y26	Z26	X27	Y27	Z27	X28	Y28	Z28	X29	Y29	Z29	X30	Y30	Z30	X31	Y31	Z31	X32	Y32	Z32	X33	Y33	Z33	X34	Y34	Z34	X35	Y35	Z35	X36	Y36	Z36	X37	Y37	Z37	X38	Y38	Z38	X39	Y39	Z39	X40	Y40	Z40	X41	Y41	Z41	X42	Y42	Z42
																																																																																																																															
65	0.64	34.738	1658.50537	-1108.55823	47.90442	1661.89893	-996.01355	-82.53418	1617.6626	-1101.84448	-71.52768	1619.87903	-981.70703	-122.93501	1422.17957	-1064.64783	-161.52843	1126.21252	-1056.91833	20.28545	1351.94775	-1056.45691	61.65155	1198.07019	-1065.41235	-183.59271	1224.23022	-994.3512	-35.14333	1390.78088	-1218.03479	-53.3908	1219.50281	-1319.26953	-39.75832	1069.60742	-1350.79541	66.16831	1014.20636	-1366.19263	198.78329	990.8548	-1333.7749	168.28935	949.41846	-1363.54846	248.81189	940.99628	-1373.65247	-52.74981	1376.28625	-907.44312	-153.27756	1192.07959	-817.26196	-179.01869	1072.06909	-810.46252	-191.41507	954.12152	-776.3822	-151.88884	818.73175	-788.7442	-195.91545	833.20203	-753.93811	-176.304	754.00104	-742.26892	9.49752	921.93219	-1174.64124	32.56628	926.27478	-961.28906	-170.62303	932.06946	-1103.13831	-153.70889	930.38635	-957.57513	-70.62264	591.51617	-1232.29504	-107.97277	459.91	-1224.37854	-253.93956	337.05048	-1225.4325	-401.66763	171.95863	-1176.9126	-440.93002	188.69923	-1120.67468	-349.21826	32.17554	-1158.32068	59.2325	601.68719	-910.69299	113.96987	456.15289	-949.2652	97.71296	279.19794	-941.52728	103.86106	75.13517	-995.22607	54.54776	35.52823	-1044.47473	243.75984	42.99107	-1005.29193	37.99614	1696.23108	-1018.45447	1973.09436	1023.96906	-3102.05542	2012.46606	1022.04901	-3140.84863
66	0.65	47.11278	1659.36731	-1106.354	60.37695	1662.32117	-993.67487	-70.33807	1618.81812	-1099.72412	-59.22594	1620.52075	-979.54028	-111.11727	1422.66455	-1063.30688	-149.11256	1126.98999	-1056.39185	32.53552	1352.87598	-1055.25476	74.1126	1199.18616	-1064.62708	-171.02103	1224.58472	-993.54468	-23.21028	1391.88147	-1216.72742	-43.80607	1220.41016	-1317.64832	-31.88369	1070.29626	-1348.62073	72.74603	1012.42279	-1364.53406	205.15717	986.00769	-1332.47913	173.46529	945.38104	-1362.06555	253.57367	934.55481	-1372.56934	-40.66585	1376.83752	-906.30701	-139.85812	1191.948	-816.36353	-164.4167	1071.65308	-809.49524	-175.2477	953.58636	-775.48663	-134.34811	818.62195	-788.18817	-177.77791	832.68427	-753.05652	-157.81595	753.45435	-741.69086	22.71177	922.79071	-1173.24683	45.14462	927.77527	-960.34125	-157.58881	933.15057	-1102.95996	-140.702	932.8515	-957.29926	-51.51868	591.03021	-1233.46851	-86.6281	459.11688	-1226.83484	-234.54939	340.11221	-1227.6709	-385.52399	177.50038	-1180.30322	-422.7449	198.14113	-1123.84399	-345.49243	34.06575	-1157.84497	72.50784	602.5072	-909.75146	122.08765	455.06155	-948.36145	101.89404	278.03241	-940.60895	104.74942	75.03638	-995.4007	54.96687	35.86821	-1044.28589	244.56992	41.61217	-1005.71716	50.80904	1696.90771	-1015.75537	1973.12207	1023.4035	-3102.05493	2012.51672	1022.11414	-3140.71069
67	0.66	59.46286	1660.36206	-1103.89124	72.65666	1662.83459	-991.27917	-57.85305	1619.71704	-1097.48682	-46.95934	1620.97852	-977.40582	-99.49899	1423.24634	-1062.00513	-136.70427	1127.82568	-1055.91357	44.82418	1353.74622	-1054.25562	86.28849	1200.13184	-1063.94263	-158.55615	1225.12048	-992.73291	-11.28519	1392.93433	-1215.59875	-34.24183	1221.26172	-1316.11572	-24.28012	1070.87292	-1346.36255	79.11438	1010.51349	-1362.4292	210.99742	980.85602	-1331.05872	178.06659	940.94257	-1360.36975	257.9248	927.90143	-1371.06519	-28.3837	1377.56519	-905.19647	-126.24907	1191.90955	-815.55615	-149.70409	1071.40161	-808.46136	-158.95811	953.13037	-774.54016	-116.26033	818.70673	-787.64728	-160.04912	832.01208	-752.31647	-138.43445	753.13196	-741.14368	35.57242	923.72272	-1172.03821	57.26446	929.18988	-959.30939	-144.95906	934.12836	-1102.67749	-128.60481	935.41821	-957.13867	-32.44621	590.57422	-1234.28162	-64.91133	458.29199	-1228.53186	-214.24887	342.57523	-1229.76465	-368.5177	183.4303	-1183.17004	-404.38922	207.78528	-1127.70203	-338.54196	38.25503	-1157.49194	84.58084	603.25812	-908.60028	129.33719	453.82004	-947.34387	105.88183	277.24484	-940.11804	105.54235	74.98605	-995.66693	55.10222	36.08878	-1044.1925	245.53325	40.72479	-1006.07837	62.91464	1697.30786	-1013.44244	1973.21655	1023.41852	-3102.00977	2012.53564	1022.1109	-3140.81909
68	0.67	71.81396	1661.51086	-1101.61438	84.7588	1663.25928	-988.45447	-45.55701	1620.76001	-1095.68811	-34.821	1621.37231	-975.44055	-87.59534	1424.08435	-1060.94556	-124.5401	1128.86914	-1055.31555	57.05514	1354.54529	-1053.38843	98.33238	1200.91956	-1063.44189	-146.25455	1225.97119	-991.87421	0.67286	1394.0282	-1214.69971	-24.5903	1222.13135	-1314.77771	-16.84694	1071.40381	-1344.06372	85.06342	1008.35876	-1360.46729	216.32416	975.42554	-1329.5603	182.21706	936.28741	-1358.60352	261.73007	921.09235	-1369.48901	-16.02249	1378.18945	-904.23273	-112.5073	1191.99146	-814.74805	-134.97061	1071.22791	-807.37933	-142.37071	952.66095	-773.62598	-97.77333	818.88782	-787.18628	-141.51825	831.55573	-751.59875	-118.81473	752.86523	-740.76587	47.96176	924.755	-1171.05664	69.11698	930.71588	-958.36841	-132.57295	934.92651	-1102.4032	-116.09844	937.1795	-957.07178	-13.46666	590.22961	-1234.85657	-42.86285	457.5766	-1230.10681	-193.11121	344.62714	-1232.04468	-350.73267	190.43513	-1185.04272	-385.36655	217.68494	-1131.06519	-328.67038	43.81395	-1157.93005	93.52896	603.67511	-907.76434	135.88222	453.17017	-946.3219	109.65778	277.07925	-939.84387	105.99386	75.02789	-995.802	55.19033	36.31366	-1043.96558	245.90598	40.10542	-1006.55847	74.82938	1697.87634	-1010.78607	1973.16296	1023.38708	-3102.04785	2012.48572	1022.03223	-3140.65137
69	0.68	84.17616	1662.76196	-1099.56396	96.90668	1663.86243	-986.30298	-33.15063	1621.90356	-1093.97546	-22.72179	1621.84143	-973.8338	-75.2747	1425.31628	-1059.87524	-112.50755	1130.03259	-1054.55811	69.18343	1355.36694	-1052.70715	110.12667	1201.68164	-1063.02332	-134.09941	1227.17407	-990.78613	12.55726	1395.13196	-1213.9093	-14.8253	1223.08557	-1313.51294	-9.58689	1071.90332	-1341.78162	90.60171	1005.98236	-1358.49597	221.22304	969.7337	-1328.04382	185.77037	931.24542	-1356.78125	265.11545	914.32239	-1368.00598	-3.33681	1378.99512	-903.39563	-98.59696	1192.13867	-813.82855	-120.05767	1071.09009	-806.33191	-125.68135	952.23932	-772.67371	-78.874	819.22675	-786.67639	-122.79224	831.11768	-750.9693	-98.54289	752.93896	-740.25879	60.05811	925.78619	-1170.26343	80.75774	932.1709	-957.38165	-120.47279	935.50635	-1102.09094	-104.82775	938.91681	-956.57654	5.36432	590.17798	-1235.26416	-20.42753	457.07669	-1231.31409	-171.25583	346.35516	-1234.53467	-331.63617	198.29437	-1186.22925	-366.02875	226.60901	-1132.91577	-315.51755	49.51738	-1159.79871	100.26054	603.5686	-906.99786	142.0358	453.00302	-945.38678	113.18591	277.07813	-939.5202	106.36618	75.14186	-995.88556	55.1786	36.3737	-1043.89771	246.37617	39.60971	-1006.78802	86.69598	1698.51428	-1008.23669	1973.04224	1023.56519	-3102.06055	2012.48389	1022.05389	-3140.79565
70	0.69	96.5415	1664.10156	-1097.48999	109.14303	1664.76355	-984.56763	-20.83498	1623.29407	-1092.55103	-10.51077	1622.49243	-972.26935	-62.79018	1426.76233	-1058.88025	-100.71881	1131.42676	-1053.6748	81.25115	1356.38196	-1052.22729	121.91241	1202.47986	-1062.78186	-122.13434	1228.6781	-989.48114	24.36896	1396.26074	-1213.22717	-4.98637	1224.10205	-1312.42908	-2.37967	1072.45264	-1339.45959	95.93278	1003.61981	-1356.48572	225.65367	963.79181	-1326.45422	189.04683	926.22571	-1354.88611	267.95996	907.06165	-1366.18237	9.31997	1379.90283	-902.68964	-84.59533	1192.39294	-812.7627	-105.17995	1071.08081	-805.19611	-108.75668	951.88013	-771.83569	-59.50986	819.79962	-786.31299	-103.24767	830.91138	-750.45764	-77.59894	753.2326	-739.80658	71.84066	926.86462	-1169.72314	92.17393	933.50842	-956.45154	-108.714	935.87408	-1101.73486	-93.61694	940.1098	-956.28558	24.1532	590.414	-1235.59363	2.26431	456.9986	-1232.34985	-148.89377	347.88544	-1236.80896	-312.91705	205.57979	-1186.52771	-346.80215	233.49683	-1132.21643	-298.87994	55.68891	-1163.9978	105.89333	603.43109	-906.27087	147.59378	452.64517	-944.7597	116.61707	277.10889	-939.35211	106.52541	75.04243	-995.91516	54.97923	36.56136	-1043.72607	246.68204	39.16476	-1006.8761	98.91676	1699.4895	-1005.54755	1973.16687	1023.46771	-3101.7876	2012.57129	1022.1319	-3140.63623
71	0.7	109.02205	1665.47717	-1095.6449	121.34341	1665.55933	-982.34631	-8.39242	1624.61963	-1091.00525	1.67356	1623.37598	-970.77185	-50.339	1428.26929	-1057.85852	-88.89486	1132.83325	-1052.84619	93.28311	1357.44312	-1051.77429	133.63536	1203.33582	-1062.62683	-110.24902	1230.36511	-988.12909	36.07188	1397.45264	-1212.62183	4.83526	1225.24768	-1311.4408	4.80741	1073.16443	-1337.12439	100.99899	1001.23029	-1354.51147	229.61864	957.60956	-1324.84363	191.80115	921.04114	-1353.07104	270.25253	899.62183	-1364.37439	21.95764	1380.90576	-902.13629	-70.52711	1192.78491	-811.57806	-90.28429	1071.13831	-804.14746	-91.61382	951.61212	-770.98895	-39.76287	820.68445	-785.94995	-83.51622	830.75079	-749.96393	-56.28822	753.72943	-739.49457	83.43325	927.88855	-1169.31458	103.34847	934.65839	-955.42987	-97.15221	936.15234	-1101.30261	-82.5144	941.27264	-955.92908	43.23398	591.11176	-1235.83557	25.14921	457.46957	-1232.79199	-126.33916	349.70047	-1238.70178	-293.73105	212.4149	-1186.13916	-327.18283	238.929	-1130.22388	-279.77368	61.94201	-1168.18665	110.94366	603.14197	-905.93115	152.5636	452.13644	-944.19562	119.55523	277.06015	-939.00397	106.80486	75.04218	-995.97357	55.18437	36.62184	-1043.71265	246.90129	38.81046	-1007.06207	111.1685	1700.3916	-1003.87646	1973.1604	1023.4458	-3101.88086	2012.55212	1022.10468	-3140.73242
72	0.71	121.45896	1666.7417	-1094.14539	133.62758	1666.35083	-980.76056	4.01855	1626.00269	-1089.77393	13.90617	1624.37231	-969.53265	-38.04309	1429.71191	-1057.0177	-77.20089	1134.26208	-1052.05774	105.26217	1358.51343	-1051.50769	145.30217	1204.33337	-1062.52539	-98.34153	1232.06226	-986.77838	47.66819	1398.69739	-1212.17676	14.57577	1226.47437	-1310.49976	12.09062	1073.96155	-1334.81592	105.89706	998.95087	-1352.53247	233.19252	951.20532	-1323.2334	194.1272	915.77795	-1351.34204	272.04883	891.89819	-1362.55383	34.58065	1381.93481	-901.65906	-56.37009	1193.39929	-810.35815	-75.5296	1071.3949	-803.06372	-74.33904	951.51788	-770.11237	-19.65808	821.77991	-785.66937	-63.66526	830.71454	-749.3186	-34.4343	754.55896	-739.19104	95.02779	928.97974	-1168.85413	114.31101	935.67419	-954.37598	-85.77295	936.41577	-1100.89026	-71.87724	942.35089	-955.62701	62.56128	592.36664	-1236.08264	47.89446	458.73471	-1233.4292	-103.55003	352.1871	-1239.92053	-273.00558	218.37024	-1185.08191	-306.09583	243.21153	-1127.97974	-258.42654	67.47928	-1172.73035	116.19423	602.88776	-905.67737	156.92633	451.46658	-943.71179	121.8008	276.81107	-938.86383	106.96777	75.01225	-996.11932	55.2056	36.72916	-1043.79382	247.11913	38.50533	-1007.29932	123.37456	1701.55518	-1001.95056	1973.06982	1024.1698	-3102.03564	2012.54248	1022.09735	-3140.58887
